# xmcd CD database file
#
# Track frame offsets:
#	182
#	11077
#	35147
#	52852
#	67730
#	84890
#	94572
#	105922
#	124417
#	141177
#	156175
#	174310
#	187825
#	199560
#	212102
#	222825
#	240610
#	258062
#	270877
#	290495
#	312035
#	322975
#
# Disc length: 4539 seconds
#
# Revision: 1
# Processed by: cddbd v1.5.1PL2 Copyright (c) Steve Scherf et al.
# Submitted via: CDex 1.51
#
DISCID=1d11b916
DTITLE=Buddy Greco - On Style
DYEAR=1996
DGENRE=Jazz
TTITLE0=Movin' On
TTITLE1=Me and Mrs Jones
TTITLE2=The Hungry Years
TTITLE3=The Lady is a Tramp
TTITLE4=Love Won't Let Me Wait
TTITLE5=My Funny Valentine
TTITLE6=Baubles, Bangles and Beads
TTITLE7=Touch Me in the Morning
TTITLE8=The More I See You
TTITLE9=She Loves Me
TTITLE10=You Better Go Now
TTITLE11=Bewitched, Bothered and Bewildered
TTITLE12=Satin Doll
TTITLE13=This is All I Ask
TTITLE14=Girl Talk
TTITLE15=Teach Me Tonight
TTITLE16=Legacy
TTITLE17=Passing Pastels
TTITLE18=Neither One of Us
TTITLE19=Ready for Your Love
TTITLE20=Around the World
TTITLE21=When I Fall in Love
EXTD=YEAR: 1996
EXTT0=
EXTT1=
EXTT2=
EXTT3=
EXTT4=
EXTT5=
EXTT6=
EXTT7=
EXTT8=
EXTT9=
EXTT10=
EXTT11=
EXTT12=
EXTT13=
EXTT14=
EXTT15=
EXTT16=
EXTT17=
EXTT18=
EXTT19=
EXTT20=
EXTT21=
PLAYORDER=
